<?xml version="1.0" encoding="UTF-8" standalone="no"?>
<!DOCTYPE svg PUBLIC "-//W3C//DTD SVG 1.1//EN"
 "http://www.w3.org/Graphics/SVG/1.1/DTD/svg11.dtd">
<!-- Generated by graphviz version 2.43.0 (0)
 -->
<!-- Title: G Pages: 1 -->
<svg width="732pt" height="163pt"
 viewBox="0.00 0.00 731.92 162.82" xmlns="http://www.w3.org/2000/svg" xmlns:xlink="http://www.w3.org/1999/xlink">
<g id="graph0" class="graph" transform="scale(1 1) rotate(0) translate(4 158.82)">
<title>G</title>
<!-- Dockerfile -->
<g id="node1" class="node">
<title>Dockerfile</title>
<text text-anchor="middle" x="72.58" y="-113.8" font-family="Helvetica,sans-Serif" font-size="14.00">Dockerfile</text>
</g>
<!-- build -->
<g id="node2" class="node">
<title>build</title>
<text text-anchor="middle" x="208.15" y="-113.8" font-family="Helvetica,sans-Serif" font-size="14.00">build</text>
</g>
<!-- Dockerfile&#45;&gt;build -->
<g id="edge1" class="edge">
<title>Dockerfile&#45;&gt;build</title>
<path fill="none" stroke="black" d="M111.85,-118C130.5,-118 152.8,-118 171.13,-118"/>
<polygon fill="black" stroke="black" points="171.14,-121.5 181.14,-118 171.14,-114.5 171.14,-121.5"/>
</g>
<!-- Docker Image -->
<g id="node3" class="node">
<title>Docker Image</title>
<text text-anchor="middle" x="322.72" y="-113.8" font-family="Helvetica,sans-Serif" font-size="14.00">Docker Image</text>
</g>
<!-- build&#45;&gt;Docker Image -->
<g id="edge2" class="edge">
<title>build&#45;&gt;Docker Image</title>
<path fill="none" stroke="black" d="M235.26,-118C243,-118 251.82,-118 260.8,-118"/>
<polygon fill="black" stroke="black" points="260.95,-121.5 270.95,-118 260.95,-114.5 260.95,-121.5"/>
</g>
<!-- run -->
<g id="node4" class="node">
<title>run</title>
<text text-anchor="middle" x="437.3" y="-59.8" font-family="Helvetica,sans-Serif" font-size="14.00">run</text>
</g>
<!-- Docker Image&#45;&gt;run -->
<g id="edge3" class="edge">
<title>Docker Image&#45;&gt;run</title>
<path fill="none" stroke="black" d="M361.52,-99.87C374.25,-93.76 388.39,-86.98 400.92,-80.97"/>
<polygon fill="black" stroke="black" points="402.64,-84.03 410.14,-76.55 399.61,-77.72 402.64,-84.03"/>
</g>
<!-- push -->
<g id="node6" class="node">
<title>push</title>
<text text-anchor="middle" x="437.3" y="-113.8" font-family="Helvetica,sans-Serif" font-size="14.00">push</text>
</g>
<!-- Docker Image&#45;&gt;push -->
<g id="edge5" class="edge">
<title>Docker Image&#45;&gt;push</title>
<path fill="none" stroke="black" d="M374.41,-118C383.01,-118 391.79,-118 399.93,-118"/>
<polygon fill="black" stroke="black" points="400.2,-121.5 410.2,-118 400.2,-114.5 400.2,-121.5"/>
</g>
<!-- Docker Container -->
<g id="node5" class="node">
<title>Docker Container</title>
<text text-anchor="middle" x="562.76" y="-59.8" font-family="Helvetica,sans-Serif" font-size="14.00">Docker Container</text>
</g>
<!-- run&#45;&gt;Docker Container -->
<g id="edge4" class="edge">
<title>run&#45;&gt;Docker Container</title>
<path fill="none" stroke="black" d="M464.48,-64C472.23,-64 481.1,-64 490.28,-64"/>
<polygon fill="black" stroke="black" points="490.31,-67.5 500.31,-64 490.31,-60.5 490.31,-67.5"/>
</g>
<!-- Service -->
<g id="node9" class="node">
<title>Service</title>
<text text-anchor="middle" x="692.57" y="-47.8" font-family="Helvetica,sans-Serif" font-size="14.00">Service</text>
</g>
<!-- Docker Container&#45;&gt;Service -->
<g id="edge9" class="edge">
<title>Docker Container&#45;&gt;Service</title>
<path fill="none" stroke="black" stroke-dasharray="5,2" d="M625.42,-58.21C637.94,-57.04 650.56,-55.85 661.38,-54.83"/>
</g>
<!-- Docker Registry -->
<g id="node7" class="node">
<title>Docker Registry</title>
<text text-anchor="middle" x="562.76" y="-113.8" font-family="Helvetica,sans-Serif" font-size="14.00">Docker Registry</text>
</g>
<!-- push&#45;&gt;Docker Registry -->
<g id="edge6" class="edge">
<title>push&#45;&gt;Docker Registry</title>
<path fill="none" stroke="black" d="M464.48,-118C473.59,-118 484.26,-118 495.13,-118"/>
<polygon fill="black" stroke="black" points="495.13,-121.5 505.13,-118 495.13,-114.5 495.13,-121.5"/>
</g>
<!-- pull -->
<g id="node8" class="node">
<title>pull</title>
<text text-anchor="middle" x="692.57" y="-124.8" font-family="Helvetica,sans-Serif" font-size="14.00">pull</text>
</g>
<!-- Docker Registry&#45;&gt;pull -->
<g id="edge7" class="edge">
<title>Docker Registry&#45;&gt;pull</title>
<path fill="none" stroke="black" d="M620.57,-122.89C632.27,-123.9 644.29,-124.93 655.04,-125.86"/>
<polygon fill="black" stroke="black" points="655.04,-129.37 665.3,-126.74 655.64,-122.39 655.04,-129.37"/>
</g>
<!-- pull&#45;&gt;Docker Image -->
<g id="edge8" class="edge">
<title>pull&#45;&gt;Docker Image</title>
<path fill="none" stroke="black" d="M665.36,-136.84C653.27,-140.06 638.65,-143.41 625.23,-145 530.37,-156.28 504.73,-159.38 410.3,-145 401.15,-143.61 391.65,-141.43 382.42,-138.91"/>
<polygon fill="black" stroke="black" points="383.14,-135.47 372.56,-136.05 381.19,-142.19 383.14,-135.47"/>
</g>
<!-- docker&#45;compose.yml -->
<g id="node10" class="node">
<title>docker&#45;compose.yml</title>
<text text-anchor="middle" x="72.58" y="-36.8" font-family="Helvetica,sans-Serif" font-size="14.00">docker&#45;compose.yml</text>
</g>
<!-- describe -->
<g id="node11" class="node">
<title>describe</title>
<text text-anchor="middle" x="322.72" y="-13.8" font-family="Helvetica,sans-Serif" font-size="14.00">describe</text>
</g>
<!-- docker&#45;compose.yml&#45;&gt;describe -->
<g id="edge10" class="edge">
<title>docker&#45;compose.yml&#45;&gt;describe</title>
<path fill="none" stroke="black" d="M145.35,-34.35C188.21,-30.37 241.27,-25.46 277.93,-22.06"/>
<polygon fill="black" stroke="black" points="278.65,-25.51 288.28,-21.1 278,-18.54 278.65,-25.51"/>
</g>
<!-- refer -->
<g id="node12" class="node">
<title>refer</title>
<text text-anchor="middle" x="208.15" y="-59.8" font-family="Helvetica,sans-Serif" font-size="14.00">refer</text>
</g>
<!-- docker&#45;compose.yml&#45;&gt;refer -->
<g id="edge12" class="edge">
<title>docker&#45;compose.yml&#45;&gt;refer</title>
<path fill="none" stroke="black" d="M145.45,-53.38C154.29,-54.9 163.02,-56.4 171,-57.77"/>
<polygon fill="black" stroke="black" points="170.56,-61.25 181.01,-59.5 171.75,-54.35 170.56,-61.25"/>
</g>
<!-- describe&#45;&gt;Service -->
<g id="edge11" class="edge">
<title>describe&#45;&gt;Service</title>
<path fill="none" stroke="black" d="M357.37,-18.37C413.26,-19.39 528.67,-23.13 625.23,-37 633.8,-38.23 642.9,-39.99 651.53,-41.87"/>
<polygon fill="black" stroke="black" points="650.85,-45.3 661.38,-44.11 652.4,-38.48 650.85,-45.3"/>
</g>
<!-- refer&#45;&gt;Docker Image -->
<g id="edge13" class="edge">
<title>refer&#45;&gt;Docker Image</title>
<path fill="none" stroke="black" d="M235.26,-76.52C246.98,-82.14 261.17,-88.95 274.64,-95.41"/>
<polygon fill="black" stroke="black" points="273.28,-98.64 283.81,-99.81 276.31,-92.33 273.28,-98.64"/>
</g>
</g>
</svg>
