<svg version="1.1" viewBox="0.0 0.0 401.18897637795277 151.4488188976378" fill="none" stroke="none" stroke-linecap="square" stroke-miterlimit="10" xmlns:xlink="http://www.w3.org/1999/xlink" xmlns="http://www.w3.org/2000/svg"><clipPath id="p.0"><path d="m0 0l401.18896 0l0 151.44882l-401.18896 0l0 -151.44882z" clip-rule="nonzero"/></clipPath><g clip-path="url(#p.0)"><path fill="#000000" fill-opacity="0.0" d="m0 0l401.18896 0l0 151.44882l-401.18896 0z" fill-rule="evenodd"/><path fill="#eb8c00" d="m190.53018 24.75694l0 0c0 -13.6721945 46.54593 -24.755697 103.96326 -24.755697c57.417328 0 103.96326 11.083504 103.96326 24.755697l0 99.02279c0 13.672203 -46.54593 24.7557 -103.96326 24.7557c-57.417328 0 -103.96326 -11.083496 -103.96326 -24.7557z" fill-rule="evenodd"/><path fill="#000000" fill-opacity="0.0" d="m398.4567 24.75694l0 0c0 13.672194 -46.54593 24.755697 -103.96326 24.755697c-57.417328 0 -103.96326 -11.083504 -103.96326 -24.755697" fill-rule="evenodd"/><path fill="#000000" fill-opacity="0.0" d="m190.53018 24.75694l0 0c0 -13.6721945 46.54593 -24.755697 103.96326 -24.755697c57.417328 0 103.96326 11.083504 103.96326 24.755697l0 99.02279c0 13.672203 -46.54593 24.7557 -103.96326 24.7557c-57.417328 0 -103.96326 -11.083496 -103.96326 -24.7557z" fill-rule="evenodd"/><path stroke="#000000" stroke-width="2.0" stroke-linejoin="round" stroke-linecap="butt" d="m398.4567 24.75694l0 0c0 13.672194 -46.54593 24.755697 -103.96326 24.755697c-57.417328 0 -103.96326 -11.083504 -103.96326 -24.755697" fill-rule="evenodd"/><path stroke="#000000" stroke-width="2.0" stroke-linejoin="round" stroke-linecap="butt" d="m190.53018 24.75694l0 0c0 -13.6721945 46.54593 -24.755697 103.96326 -24.755697c57.417328 0 103.96326 11.083504 103.96326 24.755697l0 99.02279c0 13.672203 -46.54593 24.7557 -103.96326 24.7557c-57.417328 0 -103.96326 -11.083496 -103.96326 -24.7557z" fill-rule="evenodd"/><path fill="#000000" d="m249.31375 94.95244l5.3125 -0.65625q0.265625 2.03125 1.375 3.109375q1.109375 1.078125 2.6875 1.078125q1.703125 0 2.859375 -1.28125q1.171875 -1.296875 1.171875 -3.484375q0 -2.078125 -1.125 -3.28125q-1.109375 -1.21875 -2.703125 -1.21875q-1.0625 0 -2.515625 0.421875l0.59375 -4.484375q2.234375 0.0625 3.40625 -0.953125q1.171875 -1.03125 1.171875 -2.734375q0 -1.4375 -0.859375 -2.296875q-0.859375 -0.859375 -2.28125 -0.859375q-1.40625 0 -2.40625 0.984375q-1.0 0.96875 -1.21875 2.84375l-5.046875 -0.859375q0.515625 -2.609375 1.578125 -4.15625q1.078125 -1.546875 2.96875 -2.4375q1.90625 -0.890625 4.28125 -0.890625q4.03125 0 6.484375 2.578125q2.0 2.109375 2.0 4.765625q0 3.765625 -4.109375 6.015625q2.453125 0.53125 3.921875 2.375q1.484375 1.828125 1.484375 4.421875q0 3.765625 -2.765625 6.421875q-2.75 2.65625 -6.84375 2.65625q-3.890625 0 -6.453125 -2.234375q-2.546875 -2.234375 -2.96875 -5.84375zm48.09375 -2.9375l0 -4.828125l12.453125 0l0 11.40625q-1.8125 1.765625 -5.265625 3.109375q-3.4375 1.328125 -6.96875 1.328125q-4.5 0 -7.84375 -1.875q-3.328125 -1.890625 -5.015625 -5.390625q-1.671875 -3.515625 -1.671875 -7.640625q0 -4.46875 1.875 -7.9375q1.875 -3.484375 5.484375 -5.34375q2.75 -1.421875 6.859375 -1.421875q5.328125 0 8.328125 2.234375q3.0 2.234375 3.859375 6.1875l-5.75 1.078125q-0.609375 -2.109375 -2.28125 -3.328125q-1.65625 -1.234375 -4.15625 -1.234375q-3.796875 0 -6.03125 2.40625q-2.234375 2.40625 -2.234375 7.125q0 5.109375 2.265625 7.65625q2.265625 2.546875 5.9375 2.546875q1.8125 0 3.640625 -0.703125q1.828125 -0.71875 3.140625 -1.734375l0 -3.640625l-6.625 0zm17.816406 -18.109375l11.4375 0q3.40625 0 5.0625 0.296875q1.671875 0.28125 2.984375 1.1875q1.328125 0.890625 2.203125 2.390625q0.890625 1.484375 0.890625 3.34375q0 2.0 -1.09375 3.6875q-1.078125 1.671875 -2.9375 2.515625q2.625 0.765625 4.03125 2.609375q1.40625 1.828125 1.40625 4.3125q0 1.953125 -0.921875 3.796875q-0.90625 1.84375 -2.484375 2.953125q-1.5625 1.09375 -3.859375 1.34375q-1.453125 0.15625 -6.984375 0.203125l-9.734375 0l0 -28.640625zm5.78125 4.765625l0 6.625l3.78125 0q3.375 0 4.203125 -0.09375q1.484375 -0.171875 2.328125 -1.015625q0.859375 -0.859375 0.859375 -2.25q0 -1.328125 -0.734375 -2.15625q-0.734375 -0.828125 -2.1875 -1.0q-0.859375 -0.109375 -4.9375 -0.109375l-3.3125 0zm0 11.390625l0 7.65625l5.34375 0q3.125 0 3.96875 -0.171875q1.28125 -0.234375 2.09375 -1.140625q0.8125 -0.90625 0.8125 -2.4375q0 -1.28125 -0.625 -2.171875q-0.625 -0.90625 -1.8125 -1.3125q-1.171875 -0.421875 -5.125 -0.421875l-4.65625 0z" fill-rule="nonzero"/><path fill="#000000" d="m231.68484 127.50619l0 -11.453125l3.953125 0q1.328125 0 2.03125 0.15625q0.984375 0.234375 1.6875 0.828125q0.90625 0.765625 1.34375 1.953125q0.453125 1.1875 0.453125 2.71875q0 1.3125 -0.3125 2.328125q-0.296875 1.0 -0.78125 1.65625q-0.46875 0.65625 -1.03125 1.046875q-0.5625 0.375 -1.375 0.578125q-0.796875 0.1875 -1.828125 0.1875l-4.140625 0zm1.515625 -1.359375l2.453125 0q1.125 0 1.765625 -0.203125q0.65625 -0.21875 1.03125 -0.59375q0.546875 -0.546875 0.84375 -1.453125q0.296875 -0.90625 0.296875 -2.203125q0 -1.796875 -0.59375 -2.765625q-0.578125 -0.96875 -1.421875 -1.296875q-0.609375 -0.234375 -1.96875 -0.234375l-2.40625 0l0 8.75zm15.2734375 0.328125q-0.78125 0.671875 -1.5 0.953125q-0.71875 0.265625 -1.546875 0.265625q-1.375 0 -2.109375 -0.671875q-0.734375 -0.671875 -0.734375 -1.703125q0 -0.609375 0.28125 -1.109375q0.28125 -0.515625 0.71875 -0.8125q0.453125 -0.3125 1.015625 -0.46875q0.421875 -0.109375 1.25 -0.203125q1.703125 -0.203125 2.515625 -0.484375q0 -0.296875 0 -0.375q0 -0.859375 -0.390625 -1.203125q-0.546875 -0.484375 -1.609375 -0.484375q-0.984375 0 -1.46875 0.359375q-0.46875 0.34375 -0.6875 1.21875l-1.375 -0.1875q0.1875 -0.875 0.609375 -1.421875q0.4375 -0.546875 1.25 -0.828125q0.8125 -0.296875 1.875 -0.296875q1.0625 0 1.71875 0.25q0.671875 0.25 0.984375 0.625q0.3125 0.375 0.4375 0.953125q0.078125 0.359375 0.078125 1.296875l0 1.875q0 1.96875 0.078125 2.484375q0.09375 0.515625 0.359375 1.0l-1.46875 0q-0.21875 -0.4375 -0.28125 -1.03125zm-0.109375 -3.140625q-0.765625 0.3125 -2.296875 0.53125q-0.875 0.125 -1.234375 0.28125q-0.359375 0.15625 -0.5625 0.46875q-0.1875 0.296875 -0.1875 0.65625q0 0.5625 0.421875 0.9375q0.4375 0.375 1.25 0.375q0.8125 0 1.4375 -0.34375q0.640625 -0.359375 0.9375 -0.984375q0.234375 -0.46875 0.234375 -1.40625l0 -0.515625zm6.6640625 2.90625l0.203125 1.25q-0.59375 0.125 -1.0625 0.125q-0.765625 0 -1.1875 -0.234375q-0.421875 -0.25 -0.59375 -0.640625q-0.171875 -0.40625 -0.171875 -1.671875l0 -4.765625l-1.03125 0l0 -1.09375l1.03125 0l0 -2.0625l1.40625 -0.84375l0 2.90625l1.40625 0l0 1.09375l-1.40625 0l0 4.84375q0 0.609375 0.0625 0.78125q0.078125 0.171875 0.25 0.28125q0.171875 0.09375 0.484375 0.09375q0.234375 0 0.609375 -0.0625zm6.7890625 0.234375q-0.78125 0.671875 -1.5 0.953125q-0.71875 0.265625 -1.546875 0.265625q-1.375 0 -2.109375 -0.671875q-0.734375 -0.671875 -0.734375 -1.703125q0 -0.609375 0.28125 -1.109375q0.28125 -0.515625 0.71875 -0.8125q0.453125 -0.3125 1.015625 -0.46875q0.421875 -0.109375 1.25 -0.203125q1.703125 -0.203125 2.515625 -0.484375q0 -0.296875 0 -0.375q0 -0.859375 -0.390625 -1.203125q-0.546875 -0.484375 -1.609375 -0.484375q-0.984375 0 -1.46875 0.359375q-0.46875 0.34375 -0.6875 1.21875l-1.375 -0.1875q0.1875 -0.875 0.609375 -1.421875q0.4375 -0.546875 1.25 -0.828125q0.8125 -0.296875 1.875 -0.296875q1.0625 0 1.71875 0.25q0.671875 0.25 0.984375 0.625q0.3125 0.375 0.4375 0.953125q0.078125 0.359375 0.078125 1.296875l0 1.875q0 1.96875 0.078125 2.484375q0.09375 0.515625 0.359375 1.0l-1.46875 0q-0.21875 -0.4375 -0.28125 -1.03125zm-0.109375 -3.140625q-0.765625 0.3125 -2.296875 0.53125q-0.875 0.125 -1.234375 0.28125q-0.359375 0.15625 -0.5625 0.46875q-0.1875 0.296875 -0.1875 0.65625q0 0.5625 0.421875 0.9375q0.4375 0.375 1.25 0.375q0.8125 0 1.4375 -0.34375q0.640625 -0.359375 0.9375 -0.984375q0.234375 -0.46875 0.234375 -1.40625l0 -0.515625zm8.21875 4.171875l0 -11.453125l3.953125 0q1.328125 0 2.03125 0.15625q0.984375 0.234375 1.6875 0.828125q0.90625 0.765625 1.34375 1.953125q0.453125 1.1875 0.453125 2.71875q0 1.3125 -0.3125 2.328125q-0.296875 1.0 -0.78125 1.65625q-0.46875 0.65625 -1.03125 1.046875q-0.5625 0.375 -1.375 0.578125q-0.796875 0.1875 -1.828125 0.1875l-4.140625 0zm1.515625 -1.359375l2.453125 0q1.125 0 1.765625 -0.203125q0.65625 -0.21875 1.03125 -0.59375q0.546875 -0.546875 0.84375 -1.453125q0.296875 -0.90625 0.296875 -2.203125q0 -1.796875 -0.59375 -2.765625q-0.578125 -0.96875 -1.421875 -1.296875q-0.609375 -0.234375 -1.96875 -0.234375l-2.40625 0l0 8.75zm15.5390625 -1.3125l1.453125 0.171875q-0.34375 1.28125 -1.28125 1.984375q-0.921875 0.703125 -2.359375 0.703125q-1.828125 0 -2.890625 -1.125q-1.0625 -1.125 -1.0625 -3.140625q0 -2.09375 1.078125 -3.25q1.078125 -1.15625 2.796875 -1.15625q1.65625 0 2.703125 1.140625q1.0625 1.125 1.0625 3.171875q0 0.125 0 0.375l-6.1875 0q0.078125 1.375 0.765625 2.109375q0.703125 0.71875 1.734375 0.71875q0.78125 0 1.328125 -0.40625q0.546875 -0.40625 0.859375 -1.296875zm-4.609375 -2.28125l4.625 0q-0.09375 -1.046875 -0.53125 -1.5625q-0.671875 -0.8125 -1.734375 -0.8125q-0.96875 0 -1.640625 0.65625q-0.65625 0.640625 -0.71875 1.71875zm7.8359375 8.140617l0 -11.484367l1.28125 0l0 1.078125q0.453125 -0.640625 1.015625 -0.953125q0.578125 -0.3125 1.390625 -0.3125q1.0625 0 1.875 0.546875q0.8125 0.546875 1.21875 1.546875q0.421875 0.984375 0.421875 2.171875q0 1.28125 -0.46875 2.296875q-0.453125 1.015625 -1.328125 1.5625q-0.859375 0.546875 -1.828125 0.546875q-0.703125 0 -1.265625 -0.296875q-0.546875 -0.296875 -0.90625 -0.75l0 4.0468674l-1.40625 0zm1.265625 -7.2968674q0 1.609375 0.640625 2.375q0.65625 0.765625 1.578125 0.765625q0.9375 0 1.609375 -0.796875q0.671875 -0.796875 0.671875 -2.453125q0 -1.59375 -0.65625 -2.375q-0.65625 -0.796875 -1.5625 -0.796875q-0.890625 0 -1.59375 0.84375q-0.6875 0.84375 -0.6875 2.4375zm13.3046875 1.4375l1.453125 0.171875q-0.34375 1.28125 -1.28125 1.984375q-0.921875 0.703125 -2.359375 0.703125q-1.828125 0 -2.890625 -1.125q-1.0625 -1.125 -1.0625 -3.140625q0 -2.09375 1.078125 -3.25q1.078125 -1.15625 2.796875 -1.15625q1.65625 0 2.703125 1.140625q1.0625 1.125 1.0625 3.171875q0 0.125 0 0.375l-6.1875 0q0.078125 1.375 0.765625 2.109375q0.703125 0.71875 1.734375 0.71875q0.78125 0 1.328125 -0.40625q0.546875 -0.40625 0.859375 -1.296875zm-4.609375 -2.28125l4.625 0q-0.09375 -1.046875 -0.53125 -1.5625q-0.671875 -0.8125 -1.734375 -0.8125q-0.96875 0 -1.640625 0.65625q-0.65625 0.640625 -0.71875 1.71875zm7.8359375 4.953125l0 -8.296875l1.265625 0l0 1.171875q0.90625 -1.359375 2.640625 -1.359375q0.75 0 1.375 0.265625q0.625 0.265625 0.9375 0.703125q0.3125 0.4375 0.4375 1.046875q0.078125 0.390625 0.078125 1.359375l0 5.109375l-1.40625 0l0 -5.046875q0 -0.859375 -0.171875 -1.28125q-0.15625 -0.4375 -0.578125 -0.6875q-0.40625 -0.25 -0.96875 -0.25q-0.90625 0 -1.5625 0.578125q-0.640625 0.5625 -0.640625 2.15625l0 4.53125l-1.40625 0zm14.2734375 0l0 -1.046875q-0.78125 1.234375 -2.3125 1.234375q-1.0 0 -1.828125 -0.546875q-0.828125 -0.546875 -1.296875 -1.53125q-0.453125 -0.984375 -0.453125 -2.25q0 -1.25 0.40625 -2.25q0.421875 -1.015625 1.25 -1.546875q0.828125 -0.546875 1.859375 -0.546875q0.75 0 1.328125 0.3125q0.59375 0.3125 0.953125 0.828125l0 -4.109375l1.40625 0l0 11.453125l-1.3125 0zm-4.4375 -4.140625q0 1.59375 0.671875 2.390625q0.671875 0.78125 1.578125 0.78125q0.921875 0 1.5625 -0.75q0.65625 -0.765625 0.65625 -2.3125q0 -1.703125 -0.65625 -2.5q-0.65625 -0.796875 -1.625 -0.796875q-0.9375 0 -1.5625 0.765625q-0.625 0.765625 -0.625 2.421875zm13.6328125 1.46875l1.453125 0.171875q-0.34375 1.28125 -1.28125 1.984375q-0.921875 0.703125 -2.359375 0.703125q-1.828125 0 -2.890625 -1.125q-1.0625 -1.125 -1.0625 -3.140625q0 -2.09375 1.078125 -3.25q1.078125 -1.15625 2.796875 -1.15625q1.65625 0 2.703125 1.140625q1.0625 1.125 1.0625 3.171875q0 0.125 0 0.375l-6.1875 0q0.078125 1.375 0.765625 2.109375q0.703125 0.71875 1.734375 0.71875q0.78125 0 1.328125 -0.40625q0.546875 -0.40625 0.859375 -1.296875zm-4.609375 -2.28125l4.625 0q-0.09375 -1.046875 -0.53125 -1.5625q-0.671875 -0.8125 -1.734375 -0.8125q-0.96875 0 -1.640625 0.65625q-0.65625 0.640625 -0.71875 1.71875zm7.8359375 4.953125l0 -8.296875l1.265625 0l0 1.171875q0.90625 -1.359375 2.640625 -1.359375q0.75 0 1.375 0.265625q0.625 0.265625 0.9375 0.703125q0.3125 0.4375 0.4375 1.046875q0.078125 0.390625 0.078125 1.359375l0 5.109375l-1.40625 0l0 -5.046875q0 -0.859375 -0.171875 -1.28125q-0.15625 -0.4375 -0.578125 -0.6875q-0.40625 -0.25 -0.96875 -0.25q-0.90625 0 -1.5625 0.578125q-0.640625 0.5625 -0.640625 2.15625l0 4.53125l-1.40625 0zm14.3046875 -3.046875l1.390625 0.1875q-0.234375 1.421875 -1.171875 2.234375q-0.921875 0.8125 -2.28125 0.8125q-1.703125 0 -2.75 -1.109375q-1.03125 -1.125 -1.03125 -3.203125q0 -1.34375 0.4375 -2.34375q0.453125 -1.015625 1.359375 -1.515625q0.921875 -0.5 1.984375 -0.5q1.359375 0 2.21875 0.6875q0.859375 0.671875 1.09375 1.9375l-1.359375 0.203125q-0.203125 -0.828125 -0.703125 -1.25q-0.484375 -0.421875 -1.1875 -0.421875q-1.0625 0 -1.734375 0.765625q-0.65625 0.75 -0.65625 2.40625q0 1.671875 0.640625 2.4375q0.640625 0.75 1.671875 0.75q0.828125 0 1.375 -0.5q0.5625 -0.515625 0.703125 -1.578125zm2.53125 6.2499924l-0.15625 -1.328125q0.453125 0.125 0.796875 0.125q0.46875 0 0.75 -0.15625q0.28125 -0.15625 0.46875 -0.4375q0.125 -0.203125 0.421875 -1.0468674q0.046875 -0.109375 0.125 -0.34375l-3.140625 -8.3125l1.515625 0l1.71875 4.796875q0.34375 0.921875 0.609375 1.921875q0.234375 -0.96875 0.578125 -1.890625l1.765625 -4.828125l1.40625 0l-3.15625 8.4375q-0.5 1.3749924 -0.78125 1.8906174q-0.375 0.6875 -0.859375 1.015625q-0.484375 0.328125 -1.15625 0.328125q-0.40625 0 -0.90625 -0.171875z" fill-rule="nonzero"/><path fill="#d93954" d="m0 81.418846l0 0c0 -5.772293 4.679364 -10.451653 10.451653 -10.451653l80.86047 0c2.7719498 0 5.4303665 1.1011505 7.3904343 3.0612183c1.9600677 1.9600601 3.0612183 4.6184845 3.0612183 7.3904343l0 41.80535c0 5.772293 -4.679367 10.45166 -10.451653 10.45166l-80.86047 0c-5.7722883 0 -10.451653 -4.679367 -10.451653 -10.45166z" fill-rule="evenodd"/><path stroke="#000000" stroke-width="2.0" stroke-linejoin="round" stroke-linecap="butt" d="m0 81.418846l0 0c0 -5.772293 4.679364 -10.451653 10.451653 -10.451653l80.86047 0c2.7719498 0 5.4303665 1.1011505 7.3904343 3.0612183c1.9600677 1.9600601 3.0612183 4.6184845 3.0612183 7.3904343l0 41.80535c0 5.772293 -4.679367 10.45166 -10.451653 10.45166l-80.86047 0c-5.7722883 0 -10.451653 -4.679367 -10.451653 -10.45166z" fill-rule="evenodd"/><path fill="#000000" d="m16.44439 96.79902l3.1875 -0.390625q0.15625 1.21875 0.8125 1.875q0.671875 0.640625 1.625 0.640625q1.015625 0 1.703125 -0.765625q0.703125 -0.78125 0.703125 -2.09375q0 -1.25 -0.671875 -1.96875q-0.65625 -0.734375 -1.625 -0.734375q-0.625 0 -1.5 0.25l0.359375 -2.6875q1.328125 0.046875 2.03125 -0.5625q0.703125 -0.625 0.703125 -1.640625q0 -0.875 -0.515625 -1.390625q-0.515625 -0.515625 -1.359375 -0.515625q-0.84375 0 -1.453125 0.59375q-0.59375 0.578125 -0.71875 1.703125l-3.03125 -0.515625q0.3125 -1.5625 0.953125 -2.484375q0.640625 -0.9375 1.78125 -1.46875q1.140625 -0.53125 2.5625 -0.53125q2.421875 0 3.890625 1.546875q1.203125 1.265625 1.203125 2.859375q0 2.265625 -2.46875 3.609375q1.46875 0.3125 2.34375 1.421875q0.890625 1.09375 0.890625 2.65625q0 2.265625 -1.65625 3.859375q-1.640625 1.59375 -4.109375 1.59375q-2.328125 0 -3.859375 -1.34375q-1.53125 -1.34375 -1.78125 -3.515625zm19.035156 -12.6875q2.484375 0 3.890625 1.78125q1.6875 2.109375 1.6875 7.0q0 4.875 -1.6875 7.0q-1.40625 1.765625 -3.890625 1.765625q-2.515625 0 -4.046875 -1.921875q-1.53125 -1.9375 -1.53125 -6.890625q0 -4.84375 1.6875 -6.984375q1.390625 -1.75 3.890625 -1.75zm0 2.734375q-0.609375 0 -1.078125 0.375q-0.46875 0.375 -0.71875 1.359375q-0.34375 1.28125 -0.34375 4.3125q0 3.015625 0.296875 4.15625q0.3125 1.125 0.765625 1.5q0.46875 0.375 1.078125 0.375q0.59375 0 1.0625 -0.375q0.46875 -0.390625 0.71875 -1.375q0.34375 -1.265625 0.34375 -4.28125q0 -3.03125 -0.3125 -4.15625q-0.296875 -1.140625 -0.765625 -1.515625q-0.453125 -0.375 -1.046875 -0.375zm15.125 14.515625l0 -17.1875l5.1875 0l3.125 11.71875l3.078125 -11.71875l5.2031326 0l0 17.1875l-3.2187576 0l0 -13.53125l-3.421875 13.53125l-3.328125 0l-3.40625 -13.53125l0 13.53125l-3.21875 0zm20.054695 -17.1875l6.859375 0q2.046875 0 3.046875 0.171875q1.0 0.171875 1.78125 0.71875q0.796875 0.53125 1.328125 1.4375q0.53125 0.890625 0.53125 2.0q0 1.203125 -0.65625 2.21875q-0.65625 1.0 -1.765625 1.515625q1.578125 0.453125 2.421875 1.5625q0.84375 1.09375 0.84375 2.578125q0 1.171875 -0.546875 2.28125q-0.546875 1.109375 -1.5 1.78125q-0.9375 0.65625 -2.3125 0.796875q-0.875 0.09375 -4.1875 0.125l-5.84375 0l0 -17.1875zm3.46875 2.859375l0 3.984375l2.265625 0q2.03125 0 2.515625 -0.0625q0.890625 -0.109375 1.40625 -0.609375q0.515625 -0.515625 0.515625 -1.34375q0 -0.796875 -0.453125 -1.296875q-0.4375 -0.5 -1.296875 -0.609375q-0.515625 -0.0625 -2.96875 -0.0625l-1.984375 0zm0 6.84375l0 4.59375l3.203125 0q1.875 0 2.375 -0.109375q0.78125 -0.140625 1.265625 -0.6875q0.484375 -0.546875 0.484375 -1.453125q0 -0.78125 -0.375 -1.3125q-0.375 -0.546875 -1.09375 -0.78125q-0.703125 -0.25 -3.0625 -0.25l-2.796875 0z" fill-rule="nonzero"/><path fill="#000000" d="m21.440483 122.68152l0 -11.453125l4.328125 0q1.140625 0 1.734375 0.109375q0.84375 0.140625 1.40625 0.53125q0.578125 0.390625 0.921875 1.109375q0.359375 0.703125 0.359375 1.5625q0 1.453125 -0.9375 2.46875q-0.921875 1.015625 -3.359375 1.015625l-2.9375 0l0 4.65625l-1.515625 0zm1.515625 -6.015625l2.96875 0q1.46875 0 2.078125 -0.546875q0.625 -0.546875 0.625 -1.53125q0 -0.71875 -0.375 -1.234375q-0.359375 -0.515625 -0.953125 -0.671875q-0.375 -0.109375 -1.40625 -0.109375l-2.9375 0l0 4.09375zm8.96875 6.015625l0 -8.296875l1.265625 0l0 1.25q0.484375 -0.875 0.890625 -1.15625q0.40625 -0.28125 0.90625 -0.28125q0.703125 0 1.4375 0.453125l-0.484375 1.296875q-0.515625 -0.296875 -1.03125 -0.296875q-0.453125 0 -0.828125 0.28125q-0.359375 0.265625 -0.515625 0.765625q-0.234375 0.75 -0.234375 1.640625l0 4.34375l-1.40625 0zm4.8125 -4.15625q0 -2.296875 1.28125 -3.40625q1.078125 -0.921875 2.609375 -0.921875q1.71875 0 2.796875 1.125q1.09375 1.109375 1.09375 3.09375q0 1.59375 -0.484375 2.515625q-0.484375 0.921875 -1.40625 1.4375q-0.90625 0.5 -2.0 0.5q-1.734375 0 -2.8125 -1.109375q-1.078125 -1.125 -1.078125 -3.234375zm1.453125 0q0 1.59375 0.6875 2.390625q0.703125 0.796875 1.75 0.796875q1.046875 0 1.734375 -0.796875q0.703125 -0.796875 0.703125 -2.4375q0 -1.53125 -0.703125 -2.328125q-0.6875 -0.796875 -1.734375 -0.796875q-1.046875 0 -1.75 0.796875q-0.6875 0.78125 -0.6875 2.375zm7.7109375 4.84375l1.375 0.203125q0.078125 0.640625 0.46875 0.921875q0.53125 0.390625 1.4375 0.390625q0.96875 0 1.5 -0.390625q0.53125 -0.390625 0.71875 -1.09375q0.109375 -0.421875 0.109375 -1.8125q-0.921875 1.09375 -2.296875 1.09375q-1.71875 0 -2.65625 -1.234375q-0.9375 -1.234375 -0.9375 -2.96875q0 -1.1875 0.421875 -2.1875q0.4375 -1.0 1.25 -1.546875q0.828125 -0.546875 1.921875 -0.546875q1.46875 0 2.421875 1.1875l0 -1.0l1.296875 0l0 7.171875q0 1.9375 -0.390625 2.75q-0.390625 0.8125 -1.25 1.28125q-0.859375 0.46875 -2.109375 0.46875q-1.484375 0 -2.40625 -0.671875q-0.90625 -0.671875 -0.875 -2.015625zm1.171875 -4.984375q0 1.625 0.640625 2.375q0.65625 0.75 1.625 0.75q0.96875 0 1.625 -0.734375q0.65625 -0.75 0.65625 -2.34375q0 -1.53125 -0.671875 -2.296875q-0.671875 -0.78125 -1.625 -0.78125q-0.9375 0 -1.59375 0.765625q-0.65625 0.765625 -0.65625 2.265625zm7.9765625 4.296875l0 -8.296875l1.265625 0l0 1.25q0.484375 -0.875 0.890625 -1.15625q0.40625 -0.28125 0.90625 -0.28125q0.703125 0 1.4375 0.453125l-0.484375 1.296875q-0.515625 -0.296875 -1.03125 -0.296875q-0.453125 0 -0.828125 0.28125q-0.359375 0.265625 -0.515625 0.765625q-0.234375 0.75 -0.234375 1.640625l0 4.34375l-1.40625 0zm10.75 -1.03125q-0.78125 0.671875 -1.5 0.953125q-0.71875 0.265625 -1.546875 0.265625q-1.375 0 -2.109375 -0.671875q-0.734375 -0.671875 -0.734375 -1.703125q0 -0.609375 0.28125 -1.109375q0.28125 -0.515625 0.71875 -0.8125q0.453125 -0.3125 1.015625 -0.46875q0.421875 -0.109375 1.25 -0.203125q1.703125 -0.203125 2.515625 -0.484375q0 -0.296875 0 -0.375q0 -0.859375 -0.390625 -1.203125q-0.546875 -0.484375 -1.609375 -0.484375q-0.984375 0 -1.46875 0.359375q-0.46875 0.34375 -0.6875 1.21875l-1.375 -0.1875q0.1875 -0.875 0.609375 -1.421875q0.4375 -0.546875 1.25 -0.828125q0.8125 -0.296875 1.875 -0.296875q1.0625 0 1.71875 0.25q0.671875 0.25 0.984375 0.625q0.3125 0.375 0.4375 0.953125q0.07813263 0.359375 0.07813263 1.296875l0 1.875q0 1.96875 0.078125 2.484375q0.09375 0.515625 0.359375 1.0l-1.4687576 0q-0.21875 -0.4375 -0.28125 -1.03125zm-0.109375 -3.140625q-0.765625 0.3125 -2.296875 0.53125q-0.875 0.125 -1.234375 0.28125q-0.359375 0.15625 -0.5625 0.46875q-0.1875 0.296875 -0.1875 0.65625q0 0.5625 0.421875 0.9375q0.4375 0.375 1.25 0.375q0.8125 0 1.4375 -0.34375q0.640625 -0.359375 0.9375 -0.984375q0.234375 -0.46875 0.234375 -1.40625l0 -0.515625zm3.6015701 4.171875l0 -8.296875l1.25 0l0 1.15625q0.390625 -0.609375 1.03125 -0.96875q0.65625 -0.375 1.484375 -0.375q0.921875 0 1.515625 0.390625q0.59375 0.375 0.828125 1.0625q0.984375 -1.453125 2.5625 -1.453125q1.234375 0 1.890625 0.6875q0.671875 0.671875 0.671875 2.09375l0 5.703125l-1.390625 0l0 -5.234375q0 -0.84375 -0.140625 -1.203125q-0.140625 -0.375 -0.5 -0.59375q-0.359375 -0.234375 -0.84375 -0.234375q-0.875 0 -1.453125 0.578125q-0.578125 0.578125 -0.578125 1.859375l0 4.828125l-1.40625 0l0 -5.390625q0 -0.9375 -0.34375 -1.40625q-0.34375 -0.46875 -1.125 -0.46875q-0.59375 0 -1.09375 0.3125q-0.5 0.3125 -0.734375 0.921875q-0.21875 0.59375 -0.21875 1.71875l0 4.3125l-1.40625 0z" fill-rule="nonzero"/></g></svg>